<?xml version="1.0" encoding="utf-8"?>
<!-- Generator: Adobe Illustrator 20.1.0, SVG Export Plug-In . SVG Version: 6.00 Build 0)  -->
<svg version="1.1" id="Слой_1" xmlns="http://www.w3.org/2000/svg" xmlns:xlink="http://www.w3.org/1999/xlink" x="0px" y="0px"
	 viewBox="0 0 20 25" style="enable-background:new 0 0 20 25;" xml:space="preserve">
<style type="text/css">
	.st0{fill:#FFFFFF;}
	.st1{fill:#42210B;}
</style>
<g>
	<g>
		<path class="st0" d="M2.8,23.9c-0.6,0-1.1-0.5-1.1-1.1v-20c0-0.6,0.5-1.1,1.1-1.1h14.5c0.6,0,1.1,0.5,1.1,1.1v20
			c0,0.6-0.5,1.1-1.1,1.1H2.8z"/>
	</g>
	<g>
		<path class="st1" d="M17.3,2.4c0.2,0,0.3,0.1,0.3,0.3v20c0,0.2-0.1,0.3-0.3,0.3H2.8c-0.2,0-0.3-0.1-0.3-0.3v-20
			c0-0.2,0.1-0.3,0.3-0.3H17.3 M17.3,0.8H2.8c-1.1,0-2,0.9-2,2v20c0,1.1,0.9,2,2,2h14.5c1.1,0,2-0.9,2-2v-20
			C19.2,1.6,18.3,0.8,17.3,0.8L17.3,0.8z"/>
	</g>
</g>
<g>
	<path class="st1" d="M11.6,8.7h-7c-0.5,0-0.8-0.4-0.8-0.8S4.1,7,4.6,7h7c0.5,0,0.8,0.4,0.8,0.8S12.1,8.7,11.6,8.7z"/>
</g>
<g>
	<path class="st1" d="M15.4,13.2H4.6c-0.5,0-0.8-0.4-0.8-0.8c0-0.5,0.4-0.8,0.8-0.8h10.8c0.5,0,0.8,0.4,0.8,0.8
		C16.2,12.8,15.8,13.2,15.4,13.2z"/>
</g>
<g>
	<path class="st1" d="M15.4,17.8H4.6c-0.5,0-0.8-0.4-0.8-0.8c0-0.5,0.4-0.8,0.8-0.8h10.8c0.5,0,0.8,0.4,0.8,0.8
		C16.2,17.4,15.8,17.8,15.4,17.8z"/>
</g>
</svg>
