<?xml version="1.0" encoding="utf-8"?>
<!-- Generator: Adobe Illustrator 20.1.0, SVG Export Plug-In . SVG Version: 6.00 Build 0)  -->
<svg version="1.1" id="Слой_1" xmlns="http://www.w3.org/2000/svg" xmlns:xlink="http://www.w3.org/1999/xlink" x="0px" y="0px"
	 viewBox="0 0 25 25" style="enable-background:new 0 0 25 25;" xml:space="preserve">
<style type="text/css">
	.st0{fill:#E0C8A6;}
	.st1{fill:#623B2A;}
</style>
<g>
	<g>
		<path class="st0" d="M22.3,12.5c0,5.4-4.4,9.8-9.8,9.8s-9.8-4.4-9.8-9.8s4.4-9.8,9.8-9.8S22.3,7.1,22.3,12.5 M24.3,12.5
			c0-6.5-5.2-11.7-11.7-11.7S0.8,6,0.8,12.5s5.3,11.8,11.8,11.8S24.3,19,24.3,12.5L24.3,12.5z"/>
	</g>
</g>
<g>
	<path class="st1" d="M16.3,12.6c0-0.4-0.1-0.7-0.4-1L11.3,7c-0.3-0.3-0.7-0.3-1,0s-0.3,0.7,0,1l4.5,4.5L10.3,17
		c-0.3,0.3-0.3,0.7,0,1s0.7,0.3,1,0l4.6-4.6C16.2,13.3,16.3,13,16.3,12.6z"/>
</g>
</svg>
