<?xml version="1.0" encoding="utf-8"?>
<!-- Generator: Adobe Illustrator 20.1.0, SVG Export Plug-In . SVG Version: 6.00 Build 0)  -->
<svg version="1.1" id="Слой_1" xmlns="http://www.w3.org/2000/svg" xmlns:xlink="http://www.w3.org/1999/xlink" x="0px" y="0px"
	 viewBox="0 0 25 25" style="enable-background:new 0 0 25 25;" xml:space="preserve">
<style type="text/css">
	.st0{fill:#E0C8A6;}
	.st1{fill:#623B2A;}
</style>
<g>
	<g>
		<path class="st0" d="M12.5,2.8c5.4,0,9.8,4.4,9.8,9.8s-4.4,9.8-9.8,9.8s-9.8-4.4-9.8-9.8S7.1,2.8,12.5,2.8 M12.5,0.8
			C6,0.8,0.8,6,0.8,12.5S6,24.3,12.5,24.3S24.3,19,24.3,12.5S19,0.8,12.5,0.8L12.5,0.8z"/>
	</g>
</g>
<g>
	<path class="st1" d="M12.8,16.1c-0.4,0-0.7-0.1-1-0.4l-4.6-4.6c-0.3-0.3-0.3-0.7,0-1c0.3-0.3,0.7-0.3,1,0l4.5,4.5l4.5-4.5
		c0.3-0.3,0.7-0.3,1,0c0.3,0.3,0.3,0.7,0,1l-4.6,4.6C13.5,16,13.2,16.1,12.8,16.1z"/>
</g>
<g>
</g>
<g>
</g>
<g>
</g>
<g>
</g>
<g>
</g>
<g>
</g>
<g>
</g>
<g>
</g>
<g>
</g>
<g>
</g>
<g>
</g>
<g>
</g>
<g>
</g>
<g>
</g>
<g>
</g>
</svg>
